<svg width="65" height="65" viewBox="0 0 65 65" fill="none" xmlns="http://www.w3.org/2000/svg">
<circle cx="32.5" cy="32.5" r="32.5" fill="#9747FF"/>
<mask id="path-2-outside-1_282_6666" maskUnits="userSpaceOnUse" x="15.6875" y="17.5" width="34" height="35" fill="black">
<rect fill="white" x="15.6875" y="17.5" width="34" height="35"/>
<path d="M35.5723 47.8926C35.5723 49.5625 34.4297 50.7051 32.8184 50.7051C31.2363 50.7051 30.0938 49.5625 30.0938 47.8926V37.1113H20.2793C18.6094 37.1113 17.4375 35.998 17.4375 34.416C17.4375 32.8047 18.6094 31.6914 20.2793 31.6914H30.0938V21.4668C30.0938 19.7969 31.207 18.625 32.8184 18.625C34.4297 18.625 35.5723 19.7969 35.5723 21.4668V31.6914H45.5039C47.2031 31.6914 48.3457 32.8047 48.3457 34.416C48.3457 35.998 47.2031 37.1113 45.5039 37.1113H35.5723V47.8926Z"/>
</mask>
<path d="M35.5723 47.8926C35.5723 49.5625 34.4297 50.7051 32.8184 50.7051C31.2363 50.7051 30.0938 49.5625 30.0938 47.8926V37.1113H20.2793C18.6094 37.1113 17.4375 35.998 17.4375 34.416C17.4375 32.8047 18.6094 31.6914 20.2793 31.6914H30.0938V21.4668C30.0938 19.7969 31.207 18.625 32.8184 18.625C34.4297 18.625 35.5723 19.7969 35.5723 21.4668V31.6914H45.5039C47.2031 31.6914 48.3457 32.8047 48.3457 34.416C48.3457 35.998 47.2031 37.1113 45.5039 37.1113H35.5723V47.8926Z" fill="white"/>
<path d="M30.0938 37.1113H31.0938V36.1113H30.0938V37.1113ZM30.0938 31.6914V32.6914H31.0938V31.6914H30.0938ZM35.5723 31.6914H34.5723V32.6914H35.5723V31.6914ZM35.5723 37.1113V36.1113H34.5723V37.1113H35.5723ZM34.5723 47.8926C34.5723 48.4942 34.3704 48.9358 34.0872 49.2232C33.8046 49.5101 33.3807 49.7051 32.8184 49.7051V51.7051C33.8673 51.7051 34.8204 51.3288 35.5119 50.6269C36.2029 49.9255 36.5723 48.9609 36.5723 47.8926H34.5723ZM32.8184 49.7051C32.2755 49.7051 31.8589 49.5134 31.5778 49.2259C31.2959 48.9376 31.0938 48.4944 31.0938 47.8926H29.0938C29.0938 48.9607 29.4629 49.9237 30.1478 50.6242C30.8335 51.3254 31.7792 51.7051 32.8184 51.7051V49.7051ZM31.0938 47.8926V37.1113H29.0938V47.8926H31.0938ZM30.0938 36.1113H20.2793V38.1113H30.0938V36.1113ZM20.2793 36.1113C19.6692 36.1113 19.2149 35.9109 18.9205 35.6315C18.6298 35.3557 18.4375 34.9498 18.4375 34.416H16.4375C16.4375 35.4643 16.8311 36.406 17.5438 37.0823C18.2529 37.7552 19.2195 38.1113 20.2793 38.1113V36.1113ZM18.4375 34.416C18.4375 33.8625 18.6334 33.4494 18.9233 33.1722C19.2167 32.8917 19.6693 32.6914 20.2793 32.6914V30.6914C19.2194 30.6914 18.2511 31.0478 17.5411 31.7267C16.8275 32.409 16.4375 33.3582 16.4375 34.416H18.4375ZM20.2793 32.6914H30.0938V30.6914H20.2793V32.6914ZM31.0938 31.6914V21.4668H29.0938V31.6914H31.0938ZM31.0938 21.4668C31.0938 20.8568 31.294 20.4042 31.5746 20.1108C31.8517 19.8209 32.2649 19.625 32.8184 19.625V17.625C31.7605 17.625 30.8114 18.015 30.1291 18.7286C29.4501 19.4386 29.0938 20.4069 29.0938 21.4668H31.0938ZM32.8184 19.625C33.3731 19.625 33.7964 19.822 34.0821 20.1162C34.3695 20.4123 34.5723 20.8642 34.5723 21.4668H36.5723C36.5723 20.3995 36.2037 19.4304 35.5171 18.7231C34.8286 18.0139 33.8749 17.625 32.8184 17.625V19.625ZM34.5723 21.4668V31.6914H36.5723V21.4668H34.5723ZM35.5723 32.6914H45.5039V30.6914H35.5723V32.6914ZM45.5039 32.6914C46.1321 32.6914 46.5818 32.8937 46.8683 33.1697C47.152 33.443 47.3457 33.8551 47.3457 34.416H49.3457C49.3457 33.3656 48.9681 32.4154 48.2558 31.7292C47.5461 31.0457 46.575 30.6914 45.5039 30.6914V32.6914ZM47.3457 34.416C47.3457 34.9573 47.1555 35.3622 46.871 35.6341C46.5836 35.9088 46.1322 36.1113 45.5039 36.1113V38.1113C46.5748 38.1113 47.5443 37.7572 48.253 37.0798C48.9646 36.3996 49.3457 35.4568 49.3457 34.416H47.3457ZM45.5039 36.1113H35.5723V38.1113H45.5039V36.1113ZM34.5723 37.1113V47.8926H36.5723V37.1113H34.5723Z" fill="white" mask="url(#path-2-outside-1_282_6666)"/>
</svg>
